<svg width="512" height="280" version="1.2" viewBox="0 0 512 280" xmlns="http://www.w3.org/2000/svg">
 <g transform="translate(0 -116)">
  <path d="m474.09 171.89q0.01-0.38-0.25-0.67 0.35-2.14 1.78-3.34 1.47-1.22 3.28-0.66 1.98 0.6 1.6 2.81-0.26 1.5-1.43 2.43-2.36 1.89-4.98-0.57zm2.65-0.1a1.16 1.17 20 0 0 1.79-0.84q0.27-2.27-1.12-2.36-1.1-0.07-1.79 0.8-0.88 1.11 1.12 2.4z" fill="#020201"/>
  <path d="m476.74 171.79q-2-1.29-1.12-2.4 0.69-0.87 1.79-0.8 1.39 0.09 1.12 2.36a1.16 1.17 20 0 1-1.79 0.84z" fill="#fff"/>
  <path d="m473.84 171.22q0.26 0.29 0.25 0.67-119.91 43.85-239.96 87.31-0.1 0.04-9.23 3.23-7.41 2.59-13.5 5.31-2.83 1.27-5.32 1.63-0.52 0.07-0.04-0.12 25.61-10.39 51.6-19.79 140.22-50.74 210.14-76.59 3.88-1.44 6.06-1.65z" fill="#878588"/>
  <path d="m202.63 258.18-0.29-2.46 1.12-2.04q13.39-5.87 26.21-12.34 9.13-4.6 20.48-11.85 7.57-4.82 13.18-10.84 4.64-4.97 5.46-8.93 1.38-6.76-6.85-10.28-4.44-1.9-9.27-2.31-0.87-0.07-0.2-0.52 0.16-0.11 0.39-0.15 4.32-0.63 8.66-0.54 5.6 0.11 8.63 0.65 4.82 0.86 8.19 3.61 2.77 2.26 2.56 5.63-0.14 2.25-2.14 5.26-5.18 7.81-13.61 13.67-11.35 7.9-19.42 12.3-21.09 11.49-43.1 21.14z" fill="#020201"/>
  <path d="m203.46 253.68-1.12 2.04q-1.72 0.9-2.29-0.79 3.02-18.35 7.92-35.81 0.6-2.16-0.93-0.52l-12.91 13.83-3.79-4.79q10.06-11.38 20.56-22.36 1.07-1.12 2.09-1.28 2.32-0.38 1.35 3.18-5.5 20.22-10.88 46.5z" fill="#7c0f2d"/>
  <path d="m190.34 227.64 3.79 4.79-10.79 11.54q-2.33-1.6-1.3-3.79a0.57 0.7 30.2 0 0-0.12-0.78l-1.58-1.26z" fill="#500a1c"/>
  <path d="m180.34 238.14 1.58 1.26a0.57 0.7 30.2 0 1 0.12 0.78q-1.03 2.19 1.3 3.79l-21.46 23.73q-0.95 1.06 0.4 0.59l37.27-12.86q-0.24 2.51 0.6 4.78a1.02 0.72 58.7 0 1-0.06 0.89l-3.75 4.79q-14.86 7.95-29.5 16.29-11.91 6.78-32.58 15.47-2.59 1.09-4.67 3.02-11.66 10.76-20.31 16.45-20.04 13.16-42.34 21.98-11.87 4.7-24.6 5.78-2.1 0.18-4.16-0.11-2.27-0.32-3.89-1.29-4.82-2.89-1.51-8.86 1-1.81 3.61-4.39 9.22-9.08 20.31-15.74 20.56-12.35 42.58-21.87 28.82-12.47 45.5-18.5 1.27-0.46 4.58-3.92 15.44-16.09 30.98-32.06zm17.82 21.84q0.59-1.12-0.61-0.7-17.53 6.25-35.4 12.46-4.87 1.7-8.04 4.95-1.97 2-2 2.03-8.57 8.07-17.59 15.66-1.48 1.24 0.23 0.34 8.52-4.52 17.2-9.2 2.62-1.41 16.9-9.73 12.88-7.5 26.64-13.34 1.77-0.75 2.67-2.47zm-148.53 79.15q6.84 0.26 13.65-2.26 11.47-4.26 20.89-10.43 22.4-14.67 41.36-33.57 2.72-2.71 14.13-13.29 0.36-0.34-0.1-0.14-2.89 1.22-5.83 2.3-27.15 10.01-52.85 23.21-13.1 6.73-17.53 9.61-8.53 5.54-15.58 13.04-3 3.18-3.68 6.08-0.77 3.25 1.47 4.6 1.26 0.75 4.07 0.85z" fill="#020201"/>
  <path d="m200.05 254.93q0.57 1.69 2.29 0.79l0.29 2.46q-2.69 5.94-4.33 12.25-1.37-0.04-2.5-0.75 0.67-1.85 0.54-3.79l3.75-4.79a1.02 0.72 58.7 0 0 0.06-0.89q-0.84-2.27-0.6-4.78 0.15-0.35 0.5-0.5z" fill="#68051c"/>
  <path d="m195.8 269.68q1.13 0.71 2.5 0.75-0.6 1.21 0.81 0.63 5.01-2.04 9.41 0.94 6.1 4.14 3.76 11.12-1.79 5.33-6.67 9.32-4.69 3.83-10.12 6.49-7.23 3.53-15.05 3.19-5.09-0.22-7.78-2.25-4.31-3.26-1.01-9.63 2.95-5.67 9.44-10.27 2.2 0.91 2.29 3.21-4.14 4.92-1.63 10.09 1.01 2.07 2.79 2.67 2.74 0.93 4.05-2.51 2.17-5.7 5.03-17.47-1.34-1.41-0.82-2.78 2.39-0.96 3-3.5zm5.79 5.58q-2.08-1.63-3.8-0.34a1.42 1.11 83 0 0-0.48 0.8l-2.97 13.97q-0.48 2.26 1.01 0.51 2.38-2.81 4.48-6.63 0.06-0.12 1.27-2.07 1.45-2.32 1.21-4.91a1.93 1.95 16.3 0 0-0.72-1.33z" fill="#8d092e"/>
  <path d="m192.8 273.18q-0.52 1.37 0.82 2.78-5.98 2.84-10.24 7.22-0.09-2.3-2.29-3.21 5.48-4.04 11.71-6.79z" fill="#68051c"/>
  <g transform="rotate(-19.896,247.23,119.28)" style="shape-inside:url(#rect4637);white-space:pre" aria-label="Денис">
   <path d="m247.76 280.8c0.52 0 0.92 0.4 0.92 0.92v14.96c0 0.52-0.4 0.92-0.92 0.92h-14.96c-0.52 0-0.92-0.4-0.92-0.92v-14.96c0-0.52 0.4-0.92 0.92-0.92zm-21.48 15.88c0 0.52-0.4 0.92-0.92 0.92h-0.96c-0.52 0-0.92 0.4-0.92 0.92v3.76c0 0.52 0.4 0.92 0.92 0.92h31.76c0.52 0 0.92-0.4 0.92-0.92v-3.76c0-0.52-0.4-0.92-0.92-0.92h-0.96c-0.52 0-0.92-0.4-0.92-0.92v-15.88c0-3.08-2.52-5.6-5.6-5.6h-16.8c-3.08 0-5.6 2.52-5.6 5.6z"/>
   <path d="m259.88 297.6c0 3.08 2.52 5.6 5.6 5.6h18.68c0.52 0 0.92-0.4 0.92-0.92v-3.76c0-0.52-0.4-0.92-0.92-0.92h-17.76c-0.52 0-0.92-0.4-0.92-0.92v-3.76c0-0.52 0.4-0.92 0.92-0.92h17.76c0.52 0 0.92-0.4 0.92-0.92v-3.76c0-0.52-0.4-0.92-0.92-0.92h-17.76c-0.52 0-0.92-0.4-0.92-0.92v-3.76c0-0.52 0.4-0.92 0.92-0.92h17.76c0.52 0 0.92-0.4 0.92-0.92v-3.76c0-0.52-0.4-0.92-0.92-0.92h-18.68c-3.08 0-5.6 2.52-5.6 5.6z"/>
   <path d="m289.12 302.24c0 0.52 0.4 0.92 0.92 0.92h3.76c0.52 0 0.92-0.4 0.92-0.92v-9.36c0-0.52 0.4-0.92 0.92-0.92h14.96c0.52 0 0.92 0.4 0.92 0.92v9.36c0 0.52 0.4 0.92 0.92 0.92h3.76c0.52 0 0.92-0.4 0.92-0.92v-26.16c0-0.52-0.4-0.92-0.92-0.92h-3.76c-0.52 0-0.92 0.4-0.92 0.92v9.36c0 0.52-0.4 0.92-0.92 0.92h-14.96c-0.52 0-0.92-0.4-0.92-0.92v-9.36c0-0.52-0.4-0.92-0.92-0.92h-3.76c-0.52 0-0.92 0.4-0.92 0.92z"/>
   <path d="m349.16 302.28c0-8.72-0.04-17.44 0-26.16 0-0.48-0.44-0.92-0.96-0.92h-3.72c-0.6 0-1.16 0.28-1.56 0.72l-15.56 18c-0.12 0.12-0.24 0.16-0.4 0.12-0.12-0.04-0.2-0.2-0.2-0.32v-17.6c0-0.48-0.44-0.92-0.92-0.92h-3.76c-0.52 0-0.92 0.44-0.92 0.92v26.16c0 0.48 0.4 0.92 0.92 0.92h3.76c0.48 0 1.2-0.32 1.52-0.72 5.2-5.96 10.4-12 15.56-18 0.36-0.4 0.64-0.28 0.64 0.24v17.56c0 0.48 0.4 0.92 0.92 0.92h3.72c0.52 0 0.96-0.44 0.96-0.92z"/>
   <path d="m352.36 297.6c0 3.08 2.52 5.6 5.6 5.6h18.68c0.52 0 0.92-0.4 0.92-0.92v-3.76c0-0.52-0.4-0.92-0.92-0.92h-17.76c-0.52 0-0.92-0.4-0.92-0.92v-14.96c0-0.52 0.4-0.92 0.92-0.92h17.76c0.52 0 0.92-0.4 0.92-0.92v-3.76c0-0.52-0.4-0.92-0.92-0.92h-18.68c-3.08 0-5.6 2.52-5.6 5.6z"/>
  </g>
 </g>
</svg>
