<svg width="512" height="512" version="1.2" viewBox="0 0 512 512" xmlns="http://www.w3.org/2000/svg">
 <g transform="matrix(2.3597 0 0 2.3597 -442.95 -308.37)" stroke-width=".68927">
  <path d="m390.73 202.19q7e-3 -0.26193-0.17232-0.46182 0.24125-1.475 1.2269-2.3022 1.0132-0.84092 2.2608-0.45492 1.3648 0.41356 1.1028 1.9369-0.17921 1.0339-0.98567 1.6749-1.6267 1.3027-3.4326-0.39288zm1.8266-0.0689a0.79956 0.80645 20 0 0 1.2338-0.57899q0.1861-1.5646-0.77199-1.6267-0.7582-0.0482-1.2338 0.55142-0.60656 0.7651 0.77199 1.6543z" fill="#020201"/>
  <path d="m392.56 202.12q-1.3786-0.88916-0.77199-1.6543 0.4756-0.59967 1.2338-0.55142 0.95809 0.062 0.77199 1.6267a0.79956 0.80645 20 0 1-1.2338 0.57899z" fill="#fff"/>
 </g>
 <path d="m478.65 169.19q0.22767 0.25394 0.21892 0.58669-105 38.397-210.12 76.453-0.0875 0.0351-8.0822 2.8283-6.4885 2.2679-11.821 4.6497-2.4781 1.1121-4.6584 1.4273-0.45533 0.0612-0.0351-0.10506 22.425-9.098 45.183-17.329 122.78-44.43 184.01-67.066 3.3975-1.2609 5.3064-1.4448z" fill="#878588" stroke-width=".87565"/>
 <g stroke-width="1.2704">
  <path d="m239.91 240.92-0.36842-3.1252 1.4228-2.5916q17.011-7.4572 33.297-15.677 11.599-5.8438 26.018-15.054 9.6169-6.1233 16.744-13.771 5.8946-6.3138 6.9363-11.345 1.7531-8.5878-8.7022-13.06-5.6405-2.4137-11.777-2.9346-1.1052-0.0889-0.25408-0.6606 0.20326-0.13974 0.49545-0.19056 5.4881-0.80035 11.002-0.68601 7.1142 0.13974 10.963 0.82575 6.1233 1.0925 10.404 4.5861 3.519 2.8711 3.2522 7.1523-0.17786 2.8584-2.7186 6.6822-6.5806 9.9218-17.29 17.366-14.419 10.036-24.671 15.626-26.793 14.597-54.754 26.856z" fill="#020201"/>
  <path d="m240.96 235.2-1.4228 2.5916q-2.1851 1.1434-2.9092-1.0036 3.8366-23.312 10.061-45.493 0.76223-2.744-1.1815-0.6606l-16.401 17.569-4.8148-6.0852q12.78-14.457 26.119-28.406 1.3593-1.4228 2.6551-1.6261 2.9473-0.48275 1.715 4.0398-6.9871 25.687-13.822 59.073z" fill="#7c0f2d"/>
  <path d="m224.3 202.12 4.8148 6.0852-13.708 14.66q-2.96-2.0326-1.6515-4.8148a0.72412 0.88927 30.2 0 0-0.15244-0.99091l-2.0072-1.6007z" fill="#500a1c"/>
  <path d="m211.59 215.46 2.0072 1.6007a0.72412 0.88927 30.2 0 1 0.15244 0.99091q-1.3085 2.7822 1.6515 4.8148l-27.263 30.146q-1.2069 1.3466 0.50816 0.74953l47.347-16.337q-0.30489 3.1887 0.76224 6.0725a1.2958 0.91468 58.7 0 1-0.0762 1.1306l-4.764 6.0852q-18.878 10.1-37.477 20.695-15.13 8.6132-41.389 19.653-3.2903 1.3847-5.9327 3.8366-14.813 13.669-25.802 20.898-25.459 16.718-53.788 27.923-15.08 5.9708-31.252 7.3429-2.6678 0.22867-5.2848-0.13974-2.8838-0.40653-4.9418-1.6388-6.1233-3.6714-1.9183-11.256 1.2704-2.2994 4.5861-5.577 11.713-11.535 25.802-19.996 26.119-15.689 54.093-27.783 36.613-15.842 57.803-23.502 1.6134-0.58438 5.8184-4.9799 19.615-20.441 39.357-40.729zm22.638 27.745q0.74953-1.4228-0.77494-0.88927-22.27 7.9399-44.972 15.829-6.1868 2.1597-10.214 6.2884-2.5027 2.5408-2.5408 2.5789-10.887 10.252-22.346 19.894-1.8802 1.5753 0.29219 0.43193 10.824-5.7422 21.851-11.688 3.3284-1.7912 21.47-12.361 16.363-9.5279 33.843-16.947 2.2486-0.95279 3.3919-3.1379zm-188.69 100.55q8.6895 0.3303 17.341-2.8711 14.571-5.4119 26.538-13.25 28.457-18.637 52.543-42.647 3.4555-3.4428 17.951-16.883 0.45734-0.43193-0.12704-0.17785-3.6714 1.5499-7.4064 2.9219-34.491 12.717-67.14 29.486-16.642 8.5497-22.27 12.208-10.836 7.038-19.793 16.566-3.8112 4.0398-4.675 7.724-0.9782 4.1288 1.8675 5.8438 1.6007 0.9528 5.1705 1.0798z" fill="#020201"/>
  <path d="m236.63 236.79q0.72412 2.147 2.9092 1.0036l0.36842 3.1252q-3.4174 7.5461-5.5008 15.562-1.7404-0.0508-3.176-0.9528 0.85116-2.3502 0.68601-4.8148l4.764-6.0852a1.2958 0.91468 58.7 0 0 0.0762-1.1306q-1.0671-2.8838-0.76224-6.0725 0.19056-0.44463 0.6352-0.63519z" fill="#68051c"/>
  <path d="m231.23 255.53q1.4355 0.90198 3.176 0.9528-0.76224 1.5372 1.029 0.80034 6.3647-2.5916 11.954 1.1942 7.7494 5.2594 4.7767 14.127-2.274 6.7712-8.4735 11.84-5.9581 4.8656-12.856 8.2448-9.1849 4.4845-19.119 4.0526-6.4663-0.27949-9.8836-2.8584-5.4754-4.1415-1.2831-12.234 3.7476-7.2031 11.992-13.047 2.7949 1.156 2.9092 4.078-5.2594 6.2503-2.0707 12.818 1.2831 2.6297 3.5444 3.3919 3.4809 1.1815 5.1451-3.1887 2.7568-7.2412 6.3901-22.194-1.7023-1.7912-1.0417-3.5317 3.0362-1.2196 3.8112-4.4464zm7.3556 7.0888q-2.6424-2.0707-4.8275-0.43193a1.804 1.4101 83 0 0-0.60979 1.0163l-3.7731 17.747q-0.60979 2.8711 1.2831 0.6479 3.0235-3.5698 5.6913-8.4227 0.0762-0.15245 1.6134-2.6297 1.8421-2.9473 1.5372-6.2376a2.4519 2.4773 16.3 0 0-0.91468-1.6896z" fill="#8d092e"/>
  <path d="m227.42 259.97q-0.6606 1.7404 1.0417 3.5317-7.5969 3.6079-13.009 9.1722-0.11434-2.9219-2.9092-4.078 6.9617-5.1324 14.876-8.626z" fill="#68051c"/>
 </g>
</svg>
